<svg width="64" height="64" xmlns="http://www.w3.org/2000/svg">

 <g>
  <title>background</title>
  <rect fill="none" id="canvas_background" height="602" width="802" y="-1" x="-1"/>
 </g>
 <g>
  <title>Layer 1</title>
  <path id="svg_1" fill="#c2352a" d="m36.413,4.0015l-9.613,0.16406l-1.9492,1.4687l0.16016,0.16406l-6.3496,0.1642l0.48819,-0.65238l-14.495,-0.3282l-0.1643,0.9805l-0.164,1.4686l0.9804,1.797l-0.4882,3.7579l-0.81638,3.2655l0.48819,3.1053l0.1642,2.4485l0.97657,3.2659l-0.32439,1.634l0.1602,1.796l1.1406,1.308l0.32419,2.1219l-2.1131,0.81598l0.32419,6.5358l1.3048,0.97997l-0.81638,5.7139l-0.65238,0.32799l-0.48839,10.946l0.57418,-0.078l1.383,0.28599s1.674,0.57978 2.0195,0.6953c0.34551,0.11554 0.85936,-0.51953 0.85936,-0.51953l1.3828,0l1.1523,-0.23045l0.6367,0.28905l0.5742,-0.0586l1.4414,-0.11328l0.68358,-0.29295l0.29295,0.6953l0.23019,-0.174l0.63658,-0.29199l1.3204,-0.114l0.28519,0.40599s1.6116,0.17188 2.1875,0.17188c0.57584,0 0.46483,-0.46483 0.46483,-0.46483s0.1691,-0.05448 0.45703,0.23437c0.28791,0.28875 0.6953,-0.11718 0.6953,-0.11718l0.5742,-0.28905l0.40623,0.40623l0.40233,0.28905l1.0937,-0.23045l1.7812,0l0.41015,-0.11718l1.668,2.3679l0.10938,-1.207l2.7069,0c0.23035,0 0.1211,0.80466 0.1211,0.80466l1.7812,-0.5781l0.92186,0.92186l1.9023,-1.2109l1.0351,-0.17578l2.0155,-0.10938l2.8789,0l3.2811,0.22655l0.86716,-0.34375l0.62888,-0.5781l1.7304,0.97653l1.2656,-0.51951s1.3829,0.52819 1.6132,0.58592c0.23033,0.0577 2.3631,-0.23827 2.3631,-0.23827l1.3203,-0.34765l-0.85936,-0.6328l0.57421,-0.23045l2.4179,0.11328l3.2225,0.81248l-0.05468,-21.077l0,-1.332l-0.80466,0.1211l-1.039,0.17188l0,-0.6367l0.5742,-0.52343l0.46483,-0.68748l0.10938,-2.4843l-0.17188,-1.7929l-0.74998,-2.1953l-0.68358,-0.92186l-0.11718,-0.86716l0.17188,-0.5742l0.05468,-0.17188l0.74998,-0.29295l0.11718,-0.29295l-0.57421,-0.97653l0.51951,-0.29687l0.81248,-0.49217l0.32421,-2.9375l0.16406,-1.9609l0,-6.8592l-0.49,-1.9668l0.326,-2.1212l0.164,-0.8202l-1.466,-0.6523l-5.538,-0.9804l-0.818,1.1443l-0.324,-1.3085l-10.585,-0.164l-0.328,1.8007l-2.604,0.3242l-0.326,-1.1405l-2.28,-0.3282l0.816,-0.9804l-0.00162,0.00526z"/>
  <path id="svg_2" opacity="0.2" d="m43.999,13.001l-7.9998,3.9999l12,7.9998l0,-7.9998l-3.9999,-3.9999l-0.0003,0zm-28,2l-5.9994,2l33.999,33.999l6,0l3.999,-10l-37.999,-25.999l0.0004,0zm-3.999,21.999l-2.0004,10l4.0004,4l3.999,0l6,-2l-11.999,-12z"/>
  <path id="svg_3" fill="#ffffff" d="m43.999,12.001l-7.9998,3.9999l12,7.9998l0,-7.9998l-3.9999,-3.9999l-0.0003,0zm-27.999,1.9999l-5.9998,1.9999l33.999,33.999l5.9998,0l3.9999,-9.9997l-37.999,-25.999l0.0001,-0.0002zm-3.9999,21.999l-1.9999,9.9997l3.9999,3.9999l3.9999,0l5.9998,-1.9999l-12,-12l0.0003,0.0003z"/>
  <path id="svg_4" opacity="0.2" fill="#ffffff" d="m36.41,4.002l-9.609,0.164l-1.949,1.4688l0.16,0.164l-6.35,0.1641l0.488,-0.6524l-14.496,-0.3281l-0.1638,0.9805l-0.164,1.4687l0.0918,0.17l0.0722,-0.6387l0.1641,-0.9805l14.496,0.3281l-0.488,0.6524l6.35,-0.1641l-0.16,-0.164l1.949,-1.4688l9.029,-0.1543l-0.232,-0.0332l0.812,-0.9765l-0.0003,0zm4.725,0.3203l-0.326,1.8007l-2.606,0.3243l-0.326,-1.1407l-1.537,-0.2207l-0.742,0.8926l2.279,0.3281l0.326,1.1407l2.606,-0.3243l0.326,-1.8007l10.586,0.164l0.324,1.3086l0.818,-1.1445l5.537,0.9805l1.288,0.5722l0.015,-0.0996l0.164,-0.8203l-1.467,-0.6523l-5.537,-0.9805l-0.818,1.1445l-0.324,-1.3086l-10.586,-0.164zm18.338,5.2832l-0.096,0.6195l0.49,1.964l0,-1l-0.394,-1.5835zm-54.272,0.4315l-0.3828,2.949l-0.8164,3.266l0.0957,0.613l0.7207,-2.879l0.4882,-3.757l-0.1054,-0.192zm53.285,14.445l-0.439,0.252l0.215,0.366l0.242,-0.096l0.117,-0.293l-0.135,-0.229zm-52.974,1.19l-0.2051,1.033l0.0625,0.69l0.2618,-1.325l-0.1192,-0.398zm52.109,1.06l-0.094,0.311l0.118,0.867l0.683,0.922l0.75,2.195l0.143,1.479l0.029,-0.686l-0.172,-1.793l-0.75,-2.195l-0.683,-0.922l-0.024,-0.178zm-50.834,5.254l-1.9687,0.76l0.0488,0.981l2.0644,-0.795l-0.1445,-0.946zm53.158,3.873l-0.804,0.121l-0.553,0.092l-0.486,0.444l0,0.636l1.039,-0.172l0.804,-0.121l0,-1zm0,1.332l0,1l0.053,20.079l0.002,0l-0.055,-21.079zm-53.627,3.975l-0.6875,4.811l-0.6524,0.328l-0.4883,10.945l0.045,-0.006l0.4433,-9.939l0.6524,-0.328l0.8164,-5.713l-0.1289,-0.098z"/>
  <path id="svg_5" opacity="0.2" d="m36.41,5.002l-0.58008,0.00977l0.50977,0.07422l0.07031,-0.08399zm23.278,2.2011l-0.311,2.0215l0.0957,0.38086l0.23047,-1.502l0.16406,-0.82031l-0.17923,-0.08005zm-55.27,0.39844l-0.0918,0.83008l0.875,1.6055l0.10547,-0.80859l-0.88867,-1.62699zm-0.3203,9.2635l-0.0957,0.387l0.4883,3.105l0.164,2.448l0.8575,2.867l0.1191,-0.602l-0.9766,-3.265l-0.164,-2.448l-0.3926,-2.492zm55.77,1.1836l-0.16406,1.959l-0.32422,2.9395l-0.8125,0.49023l-0.51953,0.29688l0.43945,0.74805l0.08008,-0.04492l0.8125,-0.49219l0.32422,-2.9375l0.16406,-1.9609l0,-0.99815zm-1.6055,7.0508l-0.50781,0.19727l-0.05469,0.17188l-0.17188,0.57422l0.09375,0.68945l0.07813,-0.26367l0.05469,-0.17188l0.75,-0.29297l0.11719,-0.29297l-0.35938,-0.61133zm-52.895,2.295l-0.0605,0.31l0.1601,1.795l1.1406,1.3086l0.17969,1.1777l0.14453,-0.05469l-0.32422,-2.123l-1.1406,-1.3066l-0.0996,-1.10701zm53.854,5.1113l-0.08008,1.7988l-0.46484,0.6875l-0.57422,0.52344l0,0.63672l0.48633,-0.08008l0.08789,-0.08008l0.46484,-0.6875l0.10938,-2.4844l-0.0293,-0.3144zm-54.354,1.221l-0.0488,0.019l0.3242,6.537l1.1758,0.883l0.1289,-0.902l-1.3047,-0.981l-0.2754,-5.556zm0.1973,23.445l-0.5293,0.072l-0.0449,1.006l0.5742,-0.078l1.3828,0.287s1.674,0.5798 2.0195,0.69531c0.34551,0.11554 0.85938,-0.51953 0.85938,-0.51953l1.3828,0l1.1523,-0.23047l0.63672,0.28906l0.57422,-0.05859l1.4414,-0.11328l0.68359,-0.29297l0.29297,0.69531l0.231,-0.174l0.636,-0.293l1.321,-0.113l0.285,0.406s1.6116,0.17188 2.1875,0.17188c0.57584,0 0.46484,-0.46484 0.46484,-0.46484s0.1691,-0.05448 0.45703,0.23438c0.28791,0.28875 0.69531,-0.11719 0.69531,-0.11719l0.57422,-0.28906l0.40625,0.40625l0.40234,0.28906l1.0938,-0.23047l1.7793,0l0.41,-0.117l1.668,2.367l0.109,-1.207l2.707,0c0.23035,0 0.12109,0.80469 0.12109,0.80469l1.7812,-0.57812l0.92188,0.92188l1.9023,-1.2109l1.0352,-0.17578l2.0156,-0.10938l2.8789,0l3.2812,0.22656l0.86719,-0.34375l0.62891,-0.57812l1.7305,0.97656l1.2656,-0.51953s1.3829,0.5282 1.6133,0.58594c0.23033,0.0577 2.3633,-0.23828 2.3633,-0.23828l1.3203,-0.34766l-0.85938,-0.63281l0.57422,-0.23047l2.418,0.11328l3.2227,0.8125l-0.002,-1l-3.2207,-0.8125l-2.418,-0.11328l-0.57422,0.23047l0.85938,0.63281l-1.3203,0.34766s-2.1329,0.29598 -2.3633,0.23828c-0.23036,-0.05774 -1.6133,-0.58594 -1.6133,-0.58594l-1.265,0.519l-1.73,-0.977l-0.62891,0.57812l-0.86719,0.34375l-3.2812,-0.22656l-2.8789,0l-2.0156,0.10938l-1.0352,0.17578l-1.9023,1.2109l-0.92188,-0.92188l-1.7812,0.57812s0.10926,-0.80469 -0.12109,-0.80469l-2.708,0l-0.109,1.208l-1.668,-2.367l-0.411,0.117l-1.7793,0l-1.0938,0.23047l-0.40234,-0.28906l-0.40625,-0.40625l-0.57422,0.28906s-0.4074,0.40594 -0.69531,0.11719c-0.28793,-0.28885 -0.45703,-0.23438 -0.45703,-0.23438s0.111,0.46484 -0.46484,0.46484c-0.57594,0 -2.1875,-0.17188 -2.1875,-0.17188l-0.284,-0.406l-1.321,0.113l-0.636,0.293l-0.23047,0.17383l-0.29297,-0.69531l-0.68359,0.29297l-1.4414,0.11328l-0.57422,0.05859l-0.63672,-0.28906l-1.1523,0.23047l-1.3828,0s-0.51386,0.63507 -0.85938,0.51953c-0.3455,-0.116 -2.0195,-0.696 -2.0195,-0.696l-1.38343,-0.28617z"/>
  <ellipse stroke-dasharray="2,2" ry="10.21739" rx="11.08695" id="svg_6" cy="53.03261" cx="52.16305" stroke-width="0" stroke="#000" fill="#41fc1b"/>
 </g>
</svg>